<?xml version="1.0" encoding="utf-8"?>
<!-- Generator: Adobe Illustrator 23.0.6, SVG Export Plug-In . SVG Version: 6.00 Build 0)  -->
<svg version="1.1" xmlns="http://www.w3.org/2000/svg" xmlns:xlink="http://www.w3.org/1999/xlink" x="0px" y="0px"
	 viewBox="0 0 750 500" style="enable-background:new 0 0 750 500;" xml:space="preserve">
<style type="text/css">
	.st0{fill:#FFFFFF;}
	.st1{fill:none;stroke:#5FFF71;stroke-miterlimit:10;}
	.st2{fill:none;stroke:#5FFF71;stroke-miterlimit:10;stroke-dasharray:4.9955,3.4968;}
	.st3{fill:none;stroke:#9FFFC2;stroke-miterlimit:10;}
	.st4{fill:none;stroke:#A9C6EA;stroke-miterlimit:10;}
	.st5{fill:#E2FFEA;}
	.st6{fill:none;stroke:#FFFFFF;stroke-miterlimit:10;}
	.st7{fill:#B2CDED;}
	.st8{fill:#B4FFE0;}
	.st9{fill:#D4FFF2;}
	.st10{fill:none;stroke:#00BF96;stroke-miterlimit:10;}
	.st11{fill:#F886BC;}
	.st12{fill:#F2B18F;}
	.st13{fill:#A20AFF;}
	.st14{fill:#28364C;}
	.st15{fill:#104506;}
	.st16{fill:none;stroke:#274B20;stroke-width:0.75;stroke-miterlimit:10;}
	.st17{fill:#AF55FF;}
	.st18{fill-rule:evenodd;clip-rule:evenodd;fill:#AF55FF;}
	.st19{fill:none;stroke:#51008A;stroke-width:0.75;stroke-miterlimit:10;}
	.st20{fill-rule:evenodd;clip-rule:evenodd;fill:#F2B18F;}
	.st21{fill:#0B0B3A;}
	.st22{fill:none;stroke:#0B0B3A;stroke-width:0.5;stroke-linecap:round;stroke-miterlimit:10;}
	.st23{fill:#0B3309;}
	.st24{fill:#DFFFE6;stroke:#00BF96;stroke-miterlimit:10;}
	.st25{fill:#FFFFFF;stroke:#00BF96;stroke-miterlimit:10;}
	.st26{opacity:0.45;fill:#DFFFEB;}
	.st27{fill:#D4FFE0;}
	.st28{fill:#D7E3F4;}
	.st29{fill:#BFE4E0;stroke:#00BF96;stroke-miterlimit:10;}
	.st30{opacity:0.45;fill:#D7E3F4;}
	.st31{fill:#FFD82A;}
	.st32{fill:#FFEE99;}
	.st33{opacity:0.55;}
	.st34{fill:#FFCF5F;}
	.st35{fill:#283621;}
	.st36{fill:#475539;}
	.st37{fill:#FFCD5C;stroke:#FFC043;stroke-width:3;stroke-linecap:round;stroke-linejoin:round;stroke-miterlimit:10;}
	.st38{fill:#00BF96;}
	.st39{fill:#00BF96;stroke:#00BF96;stroke-miterlimit:10;}
	.st40{fill:#F46072;}
	.st41{fill:#003F11;}
	.st42{fill:#00276F;}
	.st43{fill:none;stroke:#00276F;stroke-width:0.75;stroke-linecap:round;stroke-linejoin:round;stroke-miterlimit:10;}
	.st44{fill:#212237;}
	.st45{fill:#008432;}
	.st46{fill:none;stroke:#004A12;stroke-width:0.75;stroke-miterlimit:10;}
	.st47{fill:#22252D;}
	.st48{fill:none;stroke:#474B51;stroke-width:0.75;stroke-miterlimit:10;}
	.st49{fill:none;stroke:#274B27;stroke-width:0.75;stroke-miterlimit:10;}
	.st50{fill:none;stroke:#28364C;stroke-width:0.75;stroke-miterlimit:10;}
	.st51{fill:#149400;}
	.st52{fill:none;stroke:#0B3D19;stroke-width:0.75;stroke-miterlimit:10;}
	.st53{fill:#D8CAC0;}
	.st54{fill:none;stroke:#846A6A;stroke-width:0.75;stroke-miterlimit:10;}
</style>
<g id="BACKGROUND">
	<rect class="st0" width="750" height="500"/>
</g>
<g id="OBJECTS">
	<g>
		<g>
			<g>
				<g>
					<path class="st1" d="M112.8,399.43c-0.81-0.2-1.61-0.41-2.42-0.63"/>
					<path class="st2" d="M107.02,397.82c-15.05-4.71-29.62-13.34-39.7-25.31c-35.49-42.16,6.1-96.2,47.48-113.22
						c20.18-8.3,38.36-18.21,44.29-41.22c5.67-22.01-9.86-45.01-13.87-66.02c-8.07-42.28,29.95-74.99,70.06-74.99
						c36.97,0,53.62,14.09,90.31,38.67c27.73,18.58,79.81,29.47,119.82,25.55c47.65-4.68,65.61-25.55,103.59-42.54
						c26.14-11.69,62.57-14.19,87.02,3.14c26.12,18.51,16.19,54.76,19.17,81.83c0.75,6.81,2.52,13.46,5.91,19.45
						c21.4,37.76,65.23,39.7,65.23,95.61c0,40.34-64.36,56.32-99.12,61.57"/>
					<path class="st1" d="M605.47,360.6c-0.84,0.12-1.67,0.24-2.47,0.35"/>
				</g>
			</g>
			<line class="st3" x1="102.8" y1="188.69" x2="117.07" y2="188.69"/>
			<line class="st3" x1="117.07" y1="196.62" x2="131.33" y2="196.62"/>
			<line class="st3" x1="538.06" y1="126.38" x2="552.32" y2="126.38"/>
			<line class="st3" x1="529" y1="134.32" x2="543.27" y2="134.32"/>
			<line class="st3" x1="550.74" y1="130.53" x2="570.12" y2="130.53"/>
			<line class="st3" x1="675.13" y1="295.45" x2="685.39" y2="295.45"/>
			<line class="st3" x1="665.82" y1="287.61" x2="680.08" y2="287.61"/>
			<line class="st3" x1="203.54" y1="87.88" x2="217.8" y2="87.88"/>
			<line class="st3" x1="180.3" y1="259.76" x2="203.76" y2="259.76"/>
			<line class="st3" x1="208.71" y1="259.76" x2="220.88" y2="259.76"/>
			<path class="st4" d="M482.7,229.85c0,2.54-2.06,4.6-4.6,4.6c-2.54,0-4.6-2.06-4.6-4.6s2.06-4.6,4.6-4.6
				C480.64,225.24,482.7,227.3,482.7,229.85z"/>
			<path class="st3" d="M663.63,197.99c0,2.54-2.06,4.6-4.6,4.6c-2.54,0-4.6-2.06-4.6-4.6c0-2.54,2.06-4.6,4.6-4.6
				C661.57,193.39,663.63,195.45,663.63,197.99z"/>
			<path class="st3" d="M492.73,98.75c0,2.54-2.06,4.6-4.6,4.6s-4.6-2.06-4.6-4.6c0-2.54,2.06-4.6,4.6-4.6S492.73,96.2,492.73,98.75
				z"/>
			<path class="st3" d="M582.68,105.64c0,1.26-1.03,2.29-2.29,2.29c-1.26,0-2.29-1.03-2.29-2.29c0-1.26,1.03-2.29,2.29-2.29
				C581.65,103.35,582.68,104.37,582.68,105.64z"/>
			<path class="st3" d="M442.66,277.71c0,1.26-1.03,2.29-2.29,2.29c-1.26,0-2.29-1.03-2.29-2.29c0-1.26,1.03-2.29,2.29-2.29
				C441.63,275.42,442.66,276.45,442.66,277.71z"/>
			<path class="st3" d="M176.54,113.44c0,1.26-1.03,2.29-2.29,2.29c-1.26,0-2.29-1.03-2.29-2.29c0-1.26,1.03-2.29,2.29-2.29
				C175.52,111.15,176.54,112.18,176.54,113.44z"/>
			<path class="st3" d="M73.03,256.55c0,1.26-1.03,2.29-2.29,2.29s-2.29-1.03-2.29-2.29c0-1.26,1.03-2.29,2.29-2.29
				S73.03,255.29,73.03,256.55z"/>
			<path class="st3" d="M185.84,209.64c0,1.26-1.03,2.29-2.29,2.29c-1.26,0-2.29-1.03-2.29-2.29c0-1.26,1.03-2.29,2.29-2.29
				C184.82,207.35,185.84,208.37,185.84,209.64z"/>
			<g>
				<line class="st3" x1="115.17" y1="138.57" x2="115.17" y2="143.99"/>
				<line class="st3" x1="117.88" y1="141.28" x2="112.46" y2="141.28"/>
			</g>
			<g>
				<line class="st3" x1="432.25" y1="66.27" x2="432.25" y2="71.69"/>
				<line class="st3" x1="434.96" y1="68.98" x2="429.54" y2="68.98"/>
			</g>
			<g>
				<line class="st3" x1="602.84" y1="150.09" x2="602.84" y2="155.51"/>
				<line class="st3" x1="605.55" y1="152.8" x2="600.13" y2="152.8"/>
			</g>
			<g>
				<line class="st3" x1="691.45" y1="222.53" x2="691.45" y2="227.95"/>
				<line class="st3" x1="694.16" y1="225.24" x2="688.74" y2="225.24"/>
			</g>
			<g>
				<line class="st3" x1="665.82" y1="317.67" x2="665.82" y2="323.09"/>
				<line class="st3" x1="668.53" y1="320.38" x2="663.11" y2="320.38"/>
			</g>
			<g>
				<path class="st5" d="M510.68,257.61c1.73-3.05,3.15-6.34,4.17-9.85c1.02-3.51,1.59-7.05,1.76-10.55l-9.63-1.33
					c0.08-3.25-0.29-6.45-1.06-9.53l9.12-3.41c-1.9-6.91-5.42-13.3-10.23-18.62l-7.76,5.88c-2.19-2.3-4.69-4.33-7.48-6l4.04-8.85
					c-3.05-1.73-6.34-3.15-9.85-4.17c-3.51-1.02-7.05-1.59-10.55-1.76l-1.33,9.63c-3.25-0.08-6.45,0.29-9.53,1.06l-3.41-9.12
					c-6.91,1.9-13.3,5.42-18.62,10.23l5.88,7.76c-2.3,2.19-4.33,4.69-6,7.48l-8.85-4.04c-1.73,3.05-3.15,6.34-4.17,9.85
					c-1.02,3.51-1.59,7.05-1.76,10.55l9.63,1.33c-0.08,3.25,0.29,6.45,1.06,9.53l-9.12,3.41c1.9,6.91,5.42,13.3,10.23,18.62
					l7.76-5.87c2.19,2.3,4.69,4.33,7.48,6l-4.04,8.85c3.05,1.73,6.34,3.15,9.85,4.17c3.51,1.02,7.05,1.59,10.55,1.76l1.33-9.63
					c3.25,0.08,6.45-0.29,9.53-1.06l3.41,9.12c6.91-1.9,13.3-5.42,18.62-10.23l-5.87-7.76c2.3-2.19,4.33-4.69,6-7.48L510.68,257.61z
					 M464.58,257.14c-12.22-3.55-19.24-16.33-15.69-28.55c3.55-12.22,16.33-19.24,28.55-15.69s19.24,16.33,15.69,28.55
					C489.58,253.66,476.8,260.69,464.58,257.14z M466.27,251.33c-9.01-2.62-14.19-12.04-11.57-21.05
					c2.62-9.01,12.04-14.19,21.05-11.57c9.01,2.62,14.19,12.04,11.57,21.05C484.71,248.77,475.28,253.95,466.27,251.33z"/>
			</g>
			<g>
				<path class="st5" d="M520.43,163.74c-0.15-1.72-0.5-3.46-1.07-5.17c-0.57-1.71-1.33-3.31-2.24-4.78l-4.29,2.16
					c-0.88-1.34-1.93-2.54-3.1-3.58l2.75-3.94c-2.71-2.28-5.93-3.89-9.38-4.7l-1.51,4.56c-1.53-0.32-3.12-0.44-4.72-0.34l-0.84-4.73
					c-1.72,0.15-3.46,0.5-5.17,1.07c-1.71,0.57-3.31,1.33-4.78,2.24l2.16,4.29c-1.34,0.88-2.54,1.93-3.58,3.1l-3.94-2.75
					c-2.28,2.71-3.89,5.93-4.7,9.38l4.56,1.51c-0.32,1.53-0.44,3.12-0.34,4.72l-4.73,0.84c0.15,1.72,0.5,3.46,1.07,5.17
					c0.57,1.71,1.33,3.31,2.24,4.78l4.29-2.16c0.88,1.34,1.93,2.54,3.1,3.58l-2.75,3.94c2.71,2.28,5.93,3.89,9.38,4.7l1.51-4.56
					c1.53,0.32,3.12,0.44,4.72,0.34l0.84,4.73c1.72-0.15,3.46-0.5,5.17-1.07c1.71-0.57,3.31-1.33,4.78-2.24l-2.16-4.29
					c1.34-0.88,2.54-1.93,3.58-3.1l3.94,2.75c2.28-2.71,3.89-5.93,4.7-9.38l-4.56-1.51c0.32-1.53,0.44-3.12,0.34-4.72L520.43,163.74
					z M501,174.77c-5.02,1.67-10.44-1.04-12.11-6.06s1.04-10.44,6.06-12.11c5.02-1.67,10.44,1.04,12.11,6.06
					C508.73,167.68,506.01,173.1,501,174.77z"/>
			</g>
			<g>
				<path class="st5" d="M284.24,131.34c-0.23-2.64-0.76-5.29-1.63-7.91c-0.87-2.62-2.04-5.07-3.43-7.32l-6.56,3.3
					c-1.35-2.06-2.95-3.89-4.75-5.47l4.21-6.03c-4.15-3.48-9.08-5.95-14.35-7.19l-2.31,6.99c-2.35-0.49-4.78-0.68-7.23-0.52
					l-1.29-7.24c-2.64,0.23-5.29,0.76-7.92,1.63c-2.62,0.87-5.07,2.04-7.32,3.43l3.3,6.56c-2.06,1.35-3.89,2.95-5.47,4.75
					l-6.03-4.21c-3.48,4.15-5.95,9.08-7.19,14.35l6.99,2.31c-0.49,2.35-0.68,4.78-0.52,7.23l-7.24,1.29
					c0.23,2.64,0.76,5.29,1.63,7.91c0.87,2.62,2.04,5.07,3.43,7.32l6.56-3.3c1.35,2.06,2.95,3.89,4.75,5.47l-4.21,6.03
					c4.15,3.48,9.08,5.95,14.35,7.19l2.31-6.99c2.35,0.49,4.78,0.68,7.23,0.52l1.29,7.24c2.64-0.23,5.29-0.76,7.91-1.63
					c2.62-0.87,5.07-2.04,7.32-3.43l-3.3-6.56c2.06-1.35,3.89-2.95,5.47-4.75l6.03,4.21c3.48-4.15,5.95-9.08,7.19-14.35l-6.99-2.31
					c0.49-2.35,0.68-4.78,0.52-7.23L284.24,131.34z M254.5,148.22c-7.68,2.55-15.97-1.6-18.53-9.28c-2.55-7.68,1.6-15.97,9.28-18.53
					c7.68-2.55,15.97,1.6,18.53,9.28C266.33,137.37,262.17,145.66,254.5,148.22z"/>
			</g>
			<g>
				<path class="st5" d="M218.48,186c0.98-1.73,1.78-3.59,2.36-5.58c0.58-1.99,0.9-3.99,1-5.98l-5.46-0.76
					c0.04-1.84-0.16-3.65-0.6-5.4l5.17-1.93c-1.08-3.92-3.07-7.54-5.8-10.55l-4.4,3.33c-1.24-1.3-2.66-2.45-4.24-3.4l2.29-5.01
					c-1.73-0.98-3.59-1.78-5.58-2.36c-1.99-0.58-3.99-0.9-5.98-1l-0.76,5.46c-1.84-0.04-3.65,0.16-5.4,0.6l-1.93-5.17
					c-3.92,1.08-7.54,3.07-10.55,5.8l3.33,4.4c-1.3,1.24-2.45,2.66-3.4,4.24l-5.01-2.29c-0.98,1.73-1.78,3.59-2.36,5.58
					c-0.58,1.99-0.9,3.99-1,5.98l5.46,0.76c-0.04,1.84,0.16,3.65,0.6,5.4l-5.17,1.93c1.08,3.92,3.07,7.54,5.8,10.55l4.4-3.33
					c1.24,1.3,2.66,2.45,4.24,3.4l-2.29,5.01c1.73,0.98,3.59,1.78,5.58,2.36c1.99,0.58,3.99,0.9,5.98,1l0.76-5.46
					c1.84,0.05,3.65-0.16,5.4-0.6l1.93,5.17c3.92-1.08,7.54-3.07,10.55-5.8l-3.33-4.4c1.3-1.24,2.45-2.66,3.4-4.24L218.48,186z
					 M192.37,185.74c-6.92-2.01-10.9-9.25-8.89-16.17c2.01-6.92,9.25-10.9,16.17-8.89c6.92,2.01,10.9,9.25,8.89,16.17
					C206.53,183.77,199.29,187.75,192.37,185.74z M193.33,182.45c-5.1-1.48-8.04-6.82-6.56-11.93c1.48-5.1,6.82-8.04,11.93-6.56
					c5.1,1.48,8.04,6.82,6.56,11.93C203.77,181,198.43,183.93,193.33,182.45z"/>
			</g>
		</g>
		<g>
			<g>
				<g>
					<path class="st5" d="M344.31,460.2c3.04-6.28,18.92-33.79,35.66-42.87c2.13-1.15,4.37-2.22,6.78-2.45
						c2.41-0.23,5.04,0.54,6.5,2.47c1.33,1.76,1.48,4.17,1.09,6.34c-3.04,17.2-22.63,23.79-32.2,36.51"/>
				</g>
				<path class="st5" d="M344.31,460.1c0,0,15.75-31.09,31.13-49.61c7.28-8.77,12.28-25.01,4.63-29.88
					c-11.08-7.04-21.96,8.64-26.95,16.43c-7.54,11.78-13.09,24.81-17.37,38.09c-0.62,1.92-6.27,24.97-6.38,24.97c0,0,3.82,0,3.82,0
					H344.31z"/>
				<path class="st6" d="M374.43,389.51c-14.52,18.36-26.57,45.55-34.58,70.59"/>
				<path class="st7" d="M311.28,460.1c0,0-1.83-47.84-23-69.96c-5.72-5.98-15.1-12.19-22.79-13.89c-9.97-2.2-9.7,9.52-7.9,17.12
					c2.34,9.85,10.39,15.99,16.19,23.32c10.68,13.5,17.05,22.4,24.85,43.4"/>
				<path class="st5" d="M317.65,460.1c5.71-10.46,3.7-55.16,0.84-69.17c-1.99-9.73-6.08-19.23-11.67-27
					c-5.06-7.04-20.2-22.57-29.11-16.26c-5.15,3.65,2.65,16.79,4.71,20.74c6.68,12.79,11.97,26.47,16.1,40.54
					c4.79,16.28,8.4,33.38,9.7,50.5c0.02,0.22,0.03,0.43,0.05,0.65"/>
				<path class="st8" d="M318.69,460.1c-1.88-25.03-0.68-63.45,10.61-85.15c12.8-24.61,29.48-35.97,31.9-26.38
					c7.02,27.82-21.16,102.63-29.09,111.53"/>
				<path class="st6" d="M262.7,384.24c22.78,15.88,38.5,45.95,41.43,75.86"/>
				<path class="st6" d="M286.01,355.65c11.19,9.99,16.88,25.63,20.32,40.76c4.74,20.85,7.02,42.21,7.77,63.68"/>
				<path class="st6" d="M354.01,359.09c-13.78,31.65-25.4,65.85-27.34,101.01"/>
				<path class="st6" d="M386.52,420.89c0,0-20.13,13.37-34.19,39.22"/>
			</g>
			<g>
				<path class="st9" d="M592.55,460.02c2.99-39.54-0.34-78.32,14.72-115.79c4.28-10.63,14.02-27.41,27.49-27.98
					c20.81-0.89,8.07,40.92,4.3,56.56c-2.42,10.06-6.04,20.07-9.79,29.68c-6.66,17.06-16.67,40.9-24.24,57.52"/>
				<path class="st8" d="M581.75,459.06c-6.55-16.76-12.96-33.58-19.44-50.37c-5.75-14.89-12.43-29.45-17.08-44.75
					c-3.53-11.64-12.67-38.33,0.7-46.53c23.81-14.61,42.85,41.91,45.36,61.98c3.31,26.46,2.6,53.07,2.99,79.66"/>
				<path class="st5" d="M562.82,460.02c0,0-13.92-17.78-20.19-26.11c-14.02-18.62-31.31-38.85-28.73-59.78
					c0.59-4.82,2.36-10.18,7.2-13.03c2.96-1.74,6.64-2.23,10-1.91c11.39,1.09,21.6,17.63,26.73,26.11
					c10.04,16.61,25.58,74.72,25.58,74.72"/>
				<path class="st6" d="M552.18,330.09c16.99,34.35,33.57,97.97,33.97,129.93"/>
				<path class="st6" d="M525.77,369.55c14.95,28.71,45.34,90.47,45.34,90.47"/>
				<path class="st6" d="M633.89,325.34c-12.2,27.2-28.91,86.16-35.64,134.76"/>
				<path class="st5" d="M605.61,460.02c0,0,6.95-30.99,11.77-48.58c5.24-19.13,22.36-48.4,40.36-56.72
					c4.14-1.91,9.14-3.23,13.15-1.04c2.45,1.34,4.12,3.82,5.02,6.46c3.06,8.95-11.93,37.2-17.08,45.13
					c-10.09,15.53-24.55,40.2-36.01,54.75"/>
				<path class="st6" d="M667.55,360.95c-21.28,18.48-49.75,77.4-57.71,99.07"/>
			</g>
			<g>
				<path class="st8" d="M143.76,440.74c-2.73-14.45-7.2-43.11-10.59-60.69c-1.64-8.51-6.39-18.9-9.4-26.98
					c-5.5-14.73-18.79-40.33-35.27-38.96c-20.45,1.7-3.92,38.46,1.28,52.34c3.35,8.92,7.86,17.65,12.47,26.01
					c8.17,14.82,20.28,35.46,29.3,49.78"/>
				<path class="st8" d="M155.57,425.15c-4.99-13.05-3.64-29.65-3.62-43.46c0.03-24.86,8.66-59.81,24.85-76.13
					c6.67-6.72,17.72-14.2,24.89-3.92c6.79,9.74-1.06,36.2-3.54,47.57c-4.85,22.26-28.05,63.5-34.76,85.06"/>
				<path class="st6" d="M189.79,313c-11.5,29.84-26.97,84.27-30.91,116.01"/>
				<path class="st6" d="M90.23,322.35c14.58,23.45,35.94,73.67,47.25,117.39"/>
				<path class="st5" d="M144.34,409.15c6.13-10.04,13.41-42.62,15.07-54.26c2.33-16.37,2.58-33.67-1.47-49.8
					c-2.74-10.88-15.25-43.44-30.96-28.76c-7.38,6.9-6.2,44.47-5.32,54.53c1.72,19.7,11.92,54.97,15.43,74.43"/>
				<path class="st6" d="M135.68,284.72c10.78,28.09,8.05,97.89,4.68,122.31"/>
			</g>
		</g>
		<line class="st10" x1="48.5" y1="460.1" x2="676.32" y2="460.1"/>
		<g>
			<g>
				<g>
					<path class="st11" d="M301.89,177.42c3.07-3.03,10.52-13.26,11.36-13.01c0.85,0.25-1.73,3.89-0.99,3.96
						c0.73,0.08,5.07-5.24,5.85-4.77c1.05,0.65-3.68,5.86-3.68,5.86s5.47-5.45,6.22-4.63c0.53,0.58-3.45,4.94-4.76,6.79
						c1.68-1.83,4.75-4.47,5.29-3.85c0.54,0.61-2.11,3.63-4.02,6.06c1.33-1.4,3.89-3.82,4.42-3.27c0.52,0.55-5.88,10.3-11.75,17.42"
						/>
				</g>
				<path class="st12" d="M262.82,214.79c26.11-22.31,43.63-42.7,43.63-42.7l9.8,6.55c0,0-16.46,25.51-38,47.47"/>
				<path class="st13" d="M255.02,222.25c5.39-6.77,14.3-13.32,14.3-13.32l15.81,12.79L271.26,238"/>
			</g>
			<g>
				<g>
					<path class="st11" d="M282.27,338.24l-8.37,110.25l9.91,6.31c0,0-27.22,1.42-28.11,0.53c-0.89-0.89,1.12-7,1.12-7l-4.55-110.34
						L282.27,338.24z"/>
					<path class="st14" d="M260.03,455.24l-4.05-3.99l0.57-2.09l6.23,6.09l3,0.01l10.57-5.22l11.47,7.18
						c1.33,0.83,0.73,2.88-0.83,2.87l-15.42-0.06l-4.92-3.42l-1.4-0.01l-0.01,3.41l-10.04-0.04l0.02-4.76L260.03,455.24z"/>
				</g>
				<g>
					<path class="st11" d="M260.28,337.65l-24.69,110.84l9.91,6.31c0,0-27.22,1.42-28.11,0.53c-0.89-0.89,1.12-7,1.12-7l7.22-110.67
						H260.28z"/>
					<path class="st14" d="M221.72,455.24l-4.05-3.99l0.57-2.09l6.23,6.09l3,0.01l10.57-5.22l11.47,7.18
						c1.33,0.83,0.73,2.88-0.83,2.87l-15.42-0.06l-4.92-3.42l-1.4-0.01l-0.01,3.41l-10.04-0.04l0.02-4.76L221.72,455.24z"/>
				</g>
				<path class="st15" d="M234.32,280.48c-13.58,23.91-13.56,68.38-13.56,68.38h62.97c0,0-0.87-39.07-7.9-61.08L234.32,280.48z"/>
				<line class="st16" x1="255.36" y1="282.63" x2="256.93" y2="348.86"/>
				<path class="st16" d="M269.3,285.41c0,0-3.18,8.07-13.93,10.86"/>
			</g>
			<g>
				<g>
					<path class="st12" d="M324.97,257.23c4.14,1.2,16.7,2.73,16.89,3.59c0.19,0.86-4.23,0.38-3.94,1.06
						c0.29,0.68,7.05,1.87,7.01,2.79c-0.05,1.24-6.91-0.36-6.91-0.36s7.42,2.12,7.07,3.18c-0.25,0.75-5.99-0.61-8.25-0.85
						c2.41,0.58,6.22,1.97,5.94,2.75c-0.28,0.77-4.2-0.08-7.25-0.56c1.87,0.48,5.23,1.54,5.01,2.26c-0.22,0.72-9.92-0.66-18.99-2.32
						"/>
				</g>
				<path class="st17" d="M250.89,215.86c0,0,1.04,2.66,6.69,2.66c3.95,0,5.44-2.07,5.44-2.07s1.45,1.3,17.01,21.72
					c3.29,4.32,2.58,13.65-2.92,21.71c-1.3,8.1-1.79,17.53-1.28,27.9h-45.02c0,0-0.79-32.35,2.33-49.99
					C234.98,227.36,242.8,219.06,250.89,215.86z"/>
				<path class="st12" d="M280.64,229.85c30,23.54,50.8,28.65,50.8,28.65l-2.45,11.53c0,0-36.03-4.57-59.7-24.46"/>
				<path class="st18" d="M263.21,217.23c7.7,1.29,19.51,12.62,19.51,12.62l-12.54,18.4c0,0-5.32-3.68-12.54-9.88"/>
				<path class="st19" d="M270.19,247.57c-9.39-5.72-13.61-9.91-13.61-9.91"/>
			</g>
			<g>
				<path class="st20" d="M266.57,195.92c3.13,5.17,4.42,10.35,0.04,13s-11.44,3.97-15.92-3.39c-3.14-5.17-2.11-11.52,2.27-14.17
					C257.35,188.71,263.44,190.75,266.57,195.92z"/>
				<g>
					<path class="st21" d="M262.93,197.25c0.14,0.52,0.56,1.14,1.08,1.12c0.15-0.01,0.26-0.1,0.3-0.23
						C264.61,197.25,262.63,196.15,262.93,197.25z"/>
				</g>
				<path class="st22" d="M260.85,196.8c0.81-1.14,1.88-1.61,2.97-1.74"/>
				<path class="st0" d="M267.77,201.82l-2.9,1.45c0,0,1.02,2.5,2.59,2.04C268.77,204.91,267.77,201.82,267.77,201.82z"/>
				<path class="st20" d="M263.21,217.23c0,0-2.51,1.37-5.63,1.29c-4.53-0.11-6.69-1.92-6.69-1.92l2.99-12.76l10.98,0.8
					L263.21,217.23z"/>
				<path class="st20" d="M265.52,196.16c0,0,3.75,2.51,3.88,3.18c0.13,0.67-1.45,1.63-1.45,1.63"/>
				<g>
					<path class="st23" d="M255.02,187.8c-0.4,0.2-1.8-0.17-2.31-0.17c-0.71,0-1.43,0.05-2.13,0.18c-4.18,0.76-7.3,4.22-9.27,7.78
						c-1.29,2.34-2.38,4.94-4.73,6.42c-5.17,3.26-11.96,2.09-17.76,4.04c-5.9,1.99-10.41,7.97-8.83,14.35
						c0.52,2.09,1.62,3.99,2.26,6.05c1.38,4.38,0.73,9.49,3.37,13.25c0.71,1.01,1.62,1.86,2.6,2.61c4.4,3.34,10.39,4.5,15.72,3.02
						c5.33-1.47,9.88-5.54,11.93-10.67c2.34-5.83,1.61-12.79,5.02-18.06c1.59-2.47,3.98-4.35,5.56-6.82
						c1.45-2.26,2.21-6.51,2.38-9.23c0.04-0.63-1.09-5.85-0.75-5.85c2.71,0,6.18-1.69,7.78-3.29
						C263.83,186.93,258.62,185.97,255.02,187.8z"/>
				</g>
				<path class="st12" d="M257.95,201.23c0,0-1.57-1.09-2.61,0.45c-1.34,2,1.88,4.52,3.43,4.64c1.55,0.12,1.51-1.57,1.51-1.57"/>
			</g>
		</g>
		<g>
			<g>
				<g>
					<rect x="497.18" y="169.54" class="st24" width="97.91" height="130.75"/>
				</g>
				<g>
					<rect x="511.8" y="169.54" class="st25" width="97.91" height="130.75"/>
				</g>
				<path class="st26" d="M593.5,196.8h-64.7c-1.99,0-3.6-1.61-3.6-3.6v-9.9c0-1.99,1.61-3.6,3.6-3.6h64.7c1.99,0,3.6,1.61,3.6,3.6
					v9.9C597.1,195.19,595.49,196.8,593.5,196.8z"/>
				<path class="st26" d="M562.99,289.51H528.8c-1.99,0-3.6-1.61-3.6-3.6v-40.86c0-1.99,1.61-3.6,3.6-3.6h34.19
					c1.99,0,3.6,1.61,3.6,3.6v40.86C566.58,287.9,564.97,289.51,562.99,289.51z"/>
				<g>
					<path class="st8" d="M530.57,213.81c0,0-0.42,0-2.18,0c-1.76,0-3.18-1.87-3.18-4.17c0-2.3,1.42-4.17,3.18-4.17
						c0.33,0,2.18,0,2.18,0V213.81z"/>
					<path class="st27" d="M533.75,209.64c0,2.3-1.42,4.17-3.18,4.17s-3.18-1.87-3.18-4.17c0-2.3,1.42-4.17,3.18-4.17
						S533.75,207.33,533.75,209.64z"/>
				</g>
				<g>
					<path class="st8" d="M551.69,213.81c0,0-0.42,0-2.18,0s-3.18-1.87-3.18-4.17c0-2.3,1.42-4.17,3.18-4.17c0.33,0,2.18,0,2.18,0
						V213.81z"/>
					<path class="st27" d="M554.87,209.64c0,2.3-1.42,4.17-3.18,4.17c-1.76,0-3.18-1.87-3.18-4.17c0-2.3,1.42-4.17,3.18-4.17
						C553.44,205.46,554.87,207.33,554.87,209.64z"/>
				</g>
				<g>
					<path class="st8" d="M572.8,213.81c0,0-0.42,0-2.18,0c-1.76,0-3.18-1.87-3.18-4.17c0-2.3,1.42-4.17,3.18-4.17
						c0.33,0,2.18,0,2.18,0V213.81z"/>
					<path class="st27" d="M575.98,209.64c0,2.3-1.42,4.17-3.18,4.17c-1.76,0-3.18-1.87-3.18-4.17c0-2.3,1.42-4.17,3.18-4.17
						C574.56,205.46,575.98,207.33,575.98,209.64z"/>
				</g>
				<g>
					<path class="st8" d="M593.92,213.81c0,0-0.42,0-2.18,0c-1.76,0-3.18-1.87-3.18-4.17c0-2.3,1.42-4.17,3.18-4.17
						c0.33,0,2.18,0,2.18,0V213.81z"/>
					<path class="st27" d="M597.1,209.64c0,2.3-1.42,4.17-3.18,4.17c-1.76,0-3.18-1.87-3.18-4.17c0-2.3,1.42-4.17,3.18-4.17
						C595.67,205.46,597.1,207.33,597.1,209.64z"/>
				</g>
				<g>
					<path class="st8" d="M530.57,234.02c0,0-0.42,0-2.18,0c-1.76,0-3.18-1.87-3.18-4.17s1.42-4.17,3.18-4.17c0.33,0,2.18,0,2.18,0
						V234.02z"/>
					<path class="st27" d="M533.75,229.85c0,2.3-1.42,4.17-3.18,4.17s-3.18-1.87-3.18-4.17s1.42-4.17,3.18-4.17
						S533.75,227.54,533.75,229.85z"/>
				</g>
				<g>
					<path class="st8" d="M551.69,234.02c0,0-0.42,0-2.18,0s-3.18-1.87-3.18-4.17s1.42-4.17,3.18-4.17c0.33,0,2.18,0,2.18,0V234.02z
						"/>
					<path class="st27" d="M554.87,229.85c0,2.3-1.42,4.17-3.18,4.17c-1.76,0-3.18-1.87-3.18-4.17s1.42-4.17,3.18-4.17
						C553.44,225.67,554.87,227.54,554.87,229.85z"/>
				</g>
				<g>
					<path class="st8" d="M572.8,234.02c0,0-0.42,0-2.18,0c-1.76,0-3.18-1.87-3.18-4.17s1.42-4.17,3.18-4.17c0.33,0,2.18,0,2.18,0
						V234.02z"/>
					<path class="st27" d="M575.98,229.85c0,2.3-1.42,4.17-3.18,4.17c-1.76,0-3.18-1.87-3.18-4.17s1.42-4.17,3.18-4.17
						C574.56,225.67,575.98,227.54,575.98,229.85z"/>
				</g>
				<g>
					<path class="st7" d="M593.92,234.02c0,0-0.42,0-2.18,0c-1.76,0-3.18-1.87-3.18-4.17s1.42-4.17,3.18-4.17c0.33,0,2.18,0,2.18,0
						V234.02z"/>
					<path class="st28" d="M597.1,229.85c0,2.3-1.42,4.17-3.18,4.17c-1.76,0-3.18-1.87-3.18-4.17s1.42-4.17,3.18-4.17
						C595.67,225.67,597.1,227.54,597.1,229.85z"/>
				</g>
			</g>
			<g>
				<polygon class="st25" points="125.38,460.1 291.54,460.1 291.54,332.78 167.19,332.78 125.38,381.67 				"/>
				<polygon class="st29" points="244.37,460.1 305.6,460.1 305.6,332.78 285.34,332.78 244.37,381.67 				"/>
				
					<rect x="125.38" y="381.67" transform="matrix(-1 -1.224647e-16 1.224647e-16 -1 369.7532 841.77)" class="st29" width="118.99" height="78.43"/>
				<g>
					<path class="st8" d="M255.02,347.05c1.14,1.04,3.47,0.34,5.21-1.57c1.74-1.91,2.22-4.3,1.08-5.34
						c-0.77-0.71-2.36-2.16-2.36-2.16l-6.28,6.91C252.66,344.89,253.88,346.01,255.02,347.05z"/>
					<path class="st27" d="M252.81,345.03c1.14,1.04,3.47,0.34,5.2-1.57c1.74-1.91,2.22-4.3,1.08-5.34
						c-1.14-1.04-3.47-0.34-5.2,1.57C252.15,341.59,251.67,343.99,252.81,345.03z"/>
				</g>
				<g>
					<path class="st8" d="M236.5,347.05c1.14,1.04,3.47,0.34,5.21-1.57c1.74-1.91,2.22-4.3,1.08-5.34
						c-0.77-0.71-2.36-2.16-2.36-2.16l-6.28,6.91C234.14,344.89,235.36,346.01,236.5,347.05z"/>
					<path class="st27" d="M234.29,345.03c1.14,1.04,3.47,0.34,5.2-1.57c1.74-1.91,2.22-4.3,1.08-5.34
						c-1.14-1.04-3.47-0.34-5.21,1.57C233.63,341.59,233.15,343.99,234.29,345.03z"/>
				</g>
				<g>
					<path class="st7" d="M198.37,347.05c1.14,1.04,3.47,0.34,5.21-1.57c1.74-1.91,2.22-4.3,1.08-5.34
						c-0.77-0.71-2.36-2.16-2.36-2.16l-6.28,6.91C196.01,344.89,197.23,346.01,198.37,347.05z"/>
					<path class="st28" d="M196.16,345.03c1.14,1.04,3.47,0.34,5.2-1.57c1.74-1.91,2.22-4.3,1.08-5.34
						c-1.14-1.04-3.47-0.34-5.21,1.57C195.5,341.59,195.02,343.99,196.16,345.03z"/>
				</g>
				<g>
					<path class="st7" d="M178.73,347.05c1.14,1.04,3.47,0.34,5.21-1.57c1.74-1.91,2.22-4.3,1.08-5.34
						c-0.77-0.71-2.36-2.16-2.36-2.16l-6.28,6.91C176.37,344.89,177.59,346.01,178.73,347.05z"/>
					<path class="st28" d="M176.52,345.03c1.14,1.04,3.47,0.34,5.2-1.57c1.74-1.91,2.22-4.3,1.08-5.34
						c-1.14-1.04-3.47-0.34-5.21,1.57C175.86,341.59,175.38,343.99,176.52,345.03z"/>
				</g>
				<polygon class="st30" points="242.96,372.76 249.56,364.2 149.01,364.2 141.46,372.76 				"/>
			</g>
			<path class="st10" d="M354.15,313.28v106.33c0,5.14-4.17,9.31-9.31,9.31h-59.15c-5.14,0-9.31-4.17-9.31-9.31v-3.05"/>
			<path class="st10" d="M368.81,318.16v121.49c0,5.25-4.25,9.5-9.5,9.5h-94.05c-5.14,0-9.31-4.17-9.31-9.31v-23.26"/>
			<path class="st10" d="M395.42,316.12v70.48c0,5.14,4.17,9.31,9.31,9.31h73.46c5.14,0,9.31-4.17,9.31-9.31V265.86
				c0-5.14,4.17-9.31,9.31-9.31h30.29"/>
			<path class="st10" d="M383.61,318.16v98.78c0,5.14,4.17,9.31,9.31,9.31h134.87c5.14,0,9.31-4.17,9.31-9.31V279.61"/>
			<g>
				<g>
					<g>
						<path class="st31" d="M287.37,163.58c0-48.39,39.23-87.63,87.63-87.63c48.39,0,87.63,39.23,87.63,87.63
							c0,19.29-6.24,37.12-16.8,51.6h0c-12.51,18.85-45.01,40.13-45.01,52.88v14.56c0,2.91-2.36,5.26-5.26,5.26h-14.08h-12.94
							h-14.08c-2.91,0-5.26-2.36-5.26-5.26v-14.56c0-12.75-32.5-34.03-45.01-52.88l0,0C293.61,200.71,287.37,182.88,287.37,163.58z"
							/>
					</g>
				</g>
				<g>
					<path class="st0" d="M384.95,286.43c-0.1-2.2-1.67-37.37,1.15-68.2c-3.45,0.41-7.15,0.63-11.1,0.63
						c-3.95,0-7.64-0.22-11.1-0.63c2.82,30.83,1.25,66,1.14,68.2l-1.55-0.07c0.02-0.54,1.65-36.92-1.23-68.34
						c-25.99-3.61-37.62-18.34-39.71-32.23c-1.22-8.12,1.55-16.2,6.59-19.22c3.06-1.83,6.76-2.2,10.69-1.07
						c6.19,1.78,12.07,7.11,15.73,14.27c4.23,8.27,6.73,21.99,8.17,36.89c3.49,0.43,7.23,0.66,11.24,0.66
						c4.02,0,7.76-0.23,11.24-0.66c1.44-14.9,3.94-28.62,8.17-36.89c3.66-7.16,9.55-12.49,15.73-14.27
						c3.93-1.13,7.63-0.76,10.69,1.07c5.04,3.02,7.82,11.1,6.59,19.22c-2.09,13.9-13.72,28.62-39.71,32.23
						c-2.88,31.41-1.25,67.79-1.23,68.34L384.95,286.43z M414.49,166.41c-1.25,0-2.56,0.19-3.91,0.58
						c-5.79,1.66-11.31,6.7-14.78,13.48c-4.07,7.95-6.5,21.34-7.92,35.97c24.9-3.59,36.04-17.62,38.03-30.88
						c1.11-7.41-1.41-15-5.86-17.66C418.39,166.91,416.51,166.41,414.49,166.41z M335.51,166.41c-2.02,0-3.9,0.5-5.56,1.49
						c-4.45,2.66-6.97,10.26-5.86,17.66c1.99,13.25,13.14,27.29,38.03,30.88c-1.42-14.63-3.85-28.02-7.92-35.97
						c-3.47-6.78-9-11.82-14.78-13.48C338.08,166.61,336.77,166.41,335.51,166.41z"/>
				</g>
				<g>
					<path class="st32" d="M448.04,168.61c-2.78,0-5.03-2.25-5.03-5.03c0-31.18-21.08-58.29-51.26-65.93
						c-2.69-0.68-4.32-3.42-3.64-6.11c0.68-2.69,3.42-4.32,6.11-3.64c34.65,8.77,58.85,39.89,58.85,75.68
						C453.06,166.36,450.81,168.61,448.04,168.61z"/>
				</g>
				<g>
					<path class="st32" d="M373.31,90.41c0,2.78,2.25,5.03,5.03,5.03c2.78,0,5.03-2.25,5.03-5.03c0-2.78-2.25-5.03-5.03-5.03
						C375.56,85.38,373.31,87.63,373.31,90.41z"/>
				</g>
				<g class="st33">
					<g>
						<g>
							<path class="st34" d="M462.46,168.77c-4.84,35.93-33.84,73.13-87.46,73.13c-53.61,0-81.54-38.94-87.46-73.13
								c1.01,17.3,7.02,33.25,16.63,46.41l0,0c12.51,18.85,45.01,40.13,45.01,52.88v14.56c0,2.91,2.36,5.26,5.26,5.26h14.08h12.94
								h14.08c2.91,0,5.26-2.36,5.26-5.26v-14.56c0-12.75,32.5-34.03,45.01-52.88h0C455.43,202.01,461.45,186.06,462.46,168.77z"/>
						</g>
					</g>
				</g>
				<g>
					<path class="st35" d="M402.89,274.28h-55.77v26.58c0,4.34,1.24,8.59,3.56,12.26l0,0c4.4,6.93,12.03,11.12,20.24,11.12h8.18
						c8.21,0,15.84-4.2,20.24-11.12l0,0c2.33-3.66,3.56-7.92,3.56-12.26V274.28z"/>
				</g>
				<g>
					<g>
						<path class="st36" d="M347.11,292.2c0.16,0.01,0.32,0,0.48-0.02l55.77-5.78c1.9-0.2,3.23-1.91,2.97-3.82
							c-0.26-1.91-2.03-3.31-3.93-3.11l-55.78,5.78c-1.9,0.2-3.23,1.91-2.97,3.82C343.91,290.83,345.4,292.14,347.11,292.2z"/>
					</g>
				</g>
				<g>
					<g>
						<path class="st36" d="M347.11,304.37c0.16,0.01,0.32,0,0.48-0.02l55.77-5.78c1.9-0.2,3.23-1.91,2.97-3.82
							c-0.26-1.91-2.03-3.3-3.93-3.11l-55.78,5.78c-1.9,0.2-3.23,1.91-2.97,3.82C343.91,302.99,345.4,304.31,347.11,304.37z"/>
					</g>
				</g>
				<g>
					<g>
						<path class="st36" d="M349.34,316.41c0.16,0.01,0.32,0,0.48-0.02l52.87-5.48c1.9-0.2,3.23-1.91,2.97-3.82
							c-0.26-1.91-2.03-3.31-3.93-3.11l-52.87,5.48c-1.9,0.2-3.23,1.91-2.97,3.82C346.13,315.04,347.63,316.35,349.34,316.41z"/>
					</g>
				</g>
				<g>
					<line class="st37" x1="375" y1="38.76" x2="375" y2="66.29"/>
					<g>
						<line class="st37" x1="424.66" y1="49.73" x2="413.54" y2="74.92"/>
						<line class="st37" x1="466.51" y1="80.19" x2="446.16" y2="98.75"/>
						<line class="st37" x1="325.34" y1="49.73" x2="336.46" y2="74.92"/>
						<line class="st37" x1="283.49" y1="80.19" x2="303.84" y2="98.75"/>
					</g>
				</g>
			</g>
			<circle class="st38" cx="255.95" cy="416.71" r="1.9"/>
			<circle class="st38" cx="276.37" cy="416.71" r="1.9"/>
			<circle class="st39" cx="537.11" cy="279.61" r="1.9"/>
			<circle class="st39" cx="547.79" cy="279.61" r="1.9"/>
			<path class="st39" d="M560.38,279.61c0,1.05-0.85,1.9-1.9,1.9c-1.05,0-1.9-0.85-1.9-1.9s0.85-1.9,1.9-1.9
				C559.53,277.71,560.38,278.56,560.38,279.61z"/>
			<circle class="st39" cx="527.11" cy="256.55" r="1.9"/>
		</g>
		<g>
			
				<ellipse transform="matrix(0.9226 -0.3857 0.3857 0.9226 -105.5283 209.2409)" class="st40" cx="468.68" cy="367.6" rx="39.13" ry="39.13"/>
			
				<ellipse transform="matrix(0.9751 -0.2216 0.2216 0.9751 -69.8033 112.9874)" class="st0" cx="468.68" cy="367.6" rx="28.31" ry="28.31"/>
			<path class="st40" d="M449.23,367.6c0,10.74,8.71,19.45,19.45,19.45c10.74,0,19.45-8.71,19.45-19.45
				c0-10.74-8.71-19.45-19.45-19.45C457.94,348.16,449.23,356.86,449.23,367.6z"/>
			<path class="st0" d="M458.49,367.6c0,5.63,4.56,10.19,10.19,10.19c5.63,0,10.19-4.56,10.19-10.19c0-5.63-4.56-10.19-10.19-10.19
				C463.05,357.42,458.49,361.98,458.49,367.6z"/>
			<g>
				<g>
					<polygon class="st41" points="467.1,369.18 473.5,369.18 467.1,362.78 					"/>
				</g>
				<g>
					<polygon class="st41" points="508.58,327.7 515.9,327.7 515.9,325.86 510.43,325.86 510.43,320.38 508.58,320.38 					"/>
				</g>
				<g>
					<polygon class="st41" points="511.93,324.35 519.25,324.35 519.25,322.51 513.78,322.51 513.78,317.03 511.93,317.03 					"/>
				</g>
				<g>
					
						<rect x="459.73" y="344.33" transform="matrix(0.7071 -0.7071 0.7071 0.7071 -100.3145 448.3244)" class="st41" width="62.59" height="1.85"/>
				</g>
			</g>
		</g>
		<g>
			<g>
				<path class="st12" d="M167.71,297.78l-4.83,9.17c0,0-3.29,0-7.84-2.24c-4.51-2.23-5.83-5.29-5.83-5.29l8.16-10.8"/>
				<path class="st12" d="M177.97,280.46c4.49,2.65-2.93,19.4-6.98,20.46c-4.05,1.06-12.09-6.86-14.49-13.56
					c-2.4-6.71,5.32-10.37,9.85-11.74C170.89,274.26,177.97,280.46,177.97,280.46z"/>
				<g>
					<g>
						<path class="st42" d="M174.64,288.58c-0.15,0.27-0.3,0.54-0.43,0.82c-0.16,0.34,0.35,0.64,0.51,0.3
							c0.14-0.3,0.27-0.61,0.39-0.92C175.21,288.5,174.78,288.33,174.64,288.58L174.64,288.58z"/>
					</g>
				</g>
				<path class="st43" d="M177.13,286.95c0,0-0.99-1.48-3.58-0.96"/>
				<path class="st0" d="M170.69,295.1l2.86,2.04c0,0-1.12,2.16-2.14,1.32C170.39,297.62,170.69,295.1,170.69,295.1z"/>
				<g>
					<path class="st44" d="M182,284.13c-2.04-0.66-4.28-1.9-5.82-2.67c-2.06,0.43-4.21,2.36-4.26,4.55
						c-0.01,0.49-0.06,1.16-0.55,1.23c-0.34,0.05-0.62-0.28-0.71-0.61c-0.09-0.33-0.08-0.68-0.22-1c-0.27-0.63-1.11-0.89-1.76-0.66
						c-0.65,0.22-1.12,0.82-1.39,1.45c-0.68,1.63-1.29,3.6,0.27,4.97c0.24,0.21,0.52,0.4,0.68,0.68c0.34,0.61-0.06,1.36-0.46,1.93
						c-1.24,1.78-3.1,3.78-6.75,3.78c-2.56,0-6.83-3.38-7.11-5.07c-0.03-0.15-2.48-10.51,2.08-17.09c2.44-3.53,6.75-6.11,11.23-5.73
						c2.77,0.23,5.19,1.86,6.55,2.92C181.26,274.18,182.86,281.89,182,284.13z"/>
				</g>
				<path class="st12" d="M177.68,290.25c0,0,0.66,5.02-0.33,5.57c-0.99,0.55-3.08-0.88-3.08-0.88"/>
			</g>
			<g>
				<g>
					<g>
						<g>
							<path class="st12" d="M179.74,426.22l-3.66,23.64l-0.19,7.12l27.92-0.14c0.68,0,1.23-0.56,1.23-1.24l0,0
								c0-0.51-0.32-0.97-0.8-1.15l-12.04-5.54l4.76-24.56"/>
							<path class="st45" d="M206.25,456.54c-0.29-0.89-0.81-1.9-1.34-2.13l-12.77-5.5c-7.04,2.85-16.14,0.67-16.14,0.67l-1.62,9.61
								c0,0.32,0.26,0.57,0.58,0.57l31.08-0.16C206.66,459.61,206.26,456.57,206.25,456.54z"/>
							<path class="st46" d="M194.91,449.47c-0.72,0.93-1.32,1.95-1.8,3.02"/>
							<path class="st46" d="M196.52,450.43c-0.74,1.03-1.04,1.62-1.48,2.57"/>
							<path class="st46" d="M197.88,451.13c-0.5,0.68-1,1.61-1.39,2.36"/>
						</g>
						<line class="st46" x1="174.54" y1="457.7" x2="206.38" y2="457.54"/>
						<path class="st46" d="M175.43,453c0,0,7.48,0.15,8.12,4.66"/>
						<path class="st46" d="M202.3,453.29c0,0-2.06,2.93-2.47,4.28"/>
					</g>
				</g>
				<g>
					<g>
						<g>
							<path class="st12" d="M93.09,432.42l-23.29-2.77l-7.12-0.19l0.14,27.92c0,0.68,0.56,1.23,1.24,1.23l0,0
								c0.51,0,0.97-0.32,1.15-0.8l5.54-12.04l24.14,2.72"/>
							<path class="st45" d="M63.12,459.82c0.89-0.29,1.9-0.81,2.13-1.34l5.5-12.77c-2.85-7.04-0.67-16.14-0.67-16.14l-9.61-1.62
								c-0.32,0-0.57,0.26-0.57,0.58l0.16,31.08C60.05,460.23,63.09,459.82,63.12,459.82z"/>
							<path class="st46" d="M70.19,448.48c-0.93-0.72-1.95-1.32-3.02-1.8"/>
							<path class="st46" d="M69.23,450.08c-1.03-0.74-1.62-1.04-2.57-1.48"/>
							<path class="st46" d="M68.53,451.44c-0.68-0.5-1.61-1-2.36-1.39"/>
						</g>
						<line class="st46" x1="61.96" y1="428.11" x2="62.13" y2="459.95"/>
						<path class="st46" d="M66.66,428.99c0,0-0.15,7.48-4.66,8.12"/>
						<path class="st46" d="M66.37,455.86c0,0-2.93-2.06-4.28-2.47"/>
					</g>
				</g>
				<path class="st47" d="M106.94,367.52c-5.01,13.38,3.16,32.81,3.16,32.81l4.31,31.29l-40.84-1.8l0.4,27.16
					c0,0,43.81,3.12,54.4,3.12c10.6,0,14.69-2.37,17.8-8.58c4.63-9.25-2.03-60.39-2.03-61.24l-7.27-32.85"/>
				<line class="st48" x1="78.47" y1="430.04" x2="78.78" y2="457.32"/>
				<path class="st47" d="M121.11,374.75c0,0-4.64,23.69,18.9,28.78c10.52,2.28,37.26,3.02,37.26,3.02l-4.57,36.6h26.71
					c0,0,5.53-27.58,7.2-46.03c1.11-12.27-4.17-17.76-14.09-18.99c-8.4-1.04-33.66-2.68-33.66-2.68l-4.25-5.33"/>
				<path class="st48" d="M145.29,404.38c0,0-19.81,0.06-24.55-22.14"/>
				<path class="st48" d="M131.19,380.15c0,0,5.36,1.03,12.34,0.57"/>
				<path class="st48" d="M105.33,377.02c0,0,5.28,1.51,8.71,1.48"/>
				<line class="st48" x1="174.47" y1="438.4" x2="200.4" y2="438.4"/>
			</g>
			<g>
				<g>
					<g>
						<rect x="227.79" y="337.36" class="st38" width="2.13" height="23.24"/>
					</g>
					<circle class="st38" cx="228.86" cy="335.01" r="3.92"/>
				</g>
				<path class="st12" d="M209.19,341.68l7.88,0.58c0,0,6.06-2.05,8.47-2.1c1.48-0.03,2.25,0.75,2.25,0.75s0,0.8,0,2.38
					c0,1.59,2.13,2.29,2.13,1.21v-1.31c0.02,0.09,4.37,2.15,1.82,4.11c1.19,0.25,1.83,1.92-0.44,3.08c0.72,0.49,1.55,1.85-0.11,2.94
					c0.74,1.12-0.76,2.36-1.95,2.61c-2.25,0.49-20.29,0.11-20.29,0.11"/>
				<path class="st45" d="M163.18,306.08c12.95,17.92,5.99,23.72-3.31,69.42c-31.09,0-54.88-5.38-54.88-5.38s7.4-23.98,21.13-50.68
					c6.54-12.73,17.42-19.06,23.58-20.68"/>
				<path class="st45" d="M143.53,326.23c0,0,20.01,31.34,29.52,32.73c15.1,2.21,40.07,1.59,40.07,1.59l1.49-22.05
					c0,0-32.1-1.62-33.42-2.38c-4.3-2.44-18.01-30.04-18.01-30.04"/>
				<path class="st49" d="M164.84,353.24c0,0-11.74-9.75-19.56-24.88"/>
				<line class="st49" x1="209.99" y1="338.25" x2="208.1" y2="360.63"/>
			</g>
		</g>
		<g>
			<g>
				<g>
					<path class="st11" d="M634.69,303.65c-0.48,4.28-3.93,16.46-3.2,16.97c0.72,0.51,1.99-3.76,2.5-3.23
						c0.51,0.53-0.99,7.23-0.14,7.54c1.16,0.43,2.33-6.51,2.33-6.51s-0.91,7.67,0.21,7.75c0.79,0.06,1.75-5.76,2.4-7.94
						c-0.4,2.45-0.58,6.5,0.24,6.54c0.81,0.04,1.55-3.91,2.28-6.9c-0.28,1.91-0.6,5.42,0.16,5.49c0.75,0.07,3.22-9.4,5.19-18.42"/>
				</g>
				<path class="st12" d="M648.63,244.89c0,0,6.93,12.31,7.93,19.87c2.47,18.62-12.98,50.15-12.98,50.15s-11.22-3.06-11.22-4.47
					c0-1.41,7.82-34.54,7.82-34.54L628.96,250"/>
			</g>
			<g>
				<path class="st12" d="M614.92,204.46l1.51,13.88c0,0-8.32,7.06-15.69-0.85l0.9-9.14L614.92,204.46z"/>
				<path class="st12" d="M603.31,190.55c0,0-9.01,12.41-5.33,17.06c2.72,3.43,9.84,3.82,12.04,2.47
					c0.47-2.54,6.31-10.94,5.38-12.81C611.82,190.14,603.31,190.55,603.31,190.55z"/>
				<g>
					<path class="st44" d="M617.34,192.7c-0.29-4.69-4.92-6.06-13.8-5.53c-1.19,0.07-3.3-0.74-3.85,0.32
						c-0.72,1.39-0.85,4.2,0.54,5.46c0.93,0.84,1.55,1.03,2.78,1.31c1.61,0.38,3.25,1.91,2.39,3.59c-0.22,0.44-0.76,1.19-0.42,1.55
						c0.17,0.18,0.74,0.39,0.96,0.51c0.64,0.34,0.6,1.31,0.2,1.92c-0.4,0.61-0.22,1.28-0.62,1.88c-0.95,1.43,0.18,4.07,1.65,4.94
						c1.31,0.77,5.59,2.07,8.73,0.44c2.72-1.41,4.35-5.25,4.38-12.15C620.29,194.3,618.33,192.52,617.34,192.7z"/>
				</g>
				<path class="st12" d="M604.29,199.79c1.46-1.85,2.65-1.56,3.29-0.54c0.86,1.36-0.87,4.18-1.67,4.66
					c-1.63,0.98-2.95,0.87-3.08-0.45"/>
				<g>
					<g>
						<path class="st14" d="M600.68,196.95c-0.42,0.35-0.81,0.98-0.58,1.45c0.07,0.13,0.19,0.19,0.34,0.18
							C601.38,198.48,601.56,196.22,600.68,196.95z"/>
					</g>
				</g>
				<path class="st50" d="M600.8,195.23c0.59,0.21,1.54,0.74,1.88,1.48"/>
				<path class="st0" d="M600.78,203.56l-2.06-1.1c0,0-1.35,2.53-0.39,3.06C599.39,206.12,600.78,203.56,600.78,203.56z"/>
			</g>
			<g>
				<g>
					
						<rect x="569.75" y="458.63" transform="matrix(-1 7.690673e-04 -7.690673e-04 -1 1172.3503 918.2692)" class="st51" width="32.51" height="1.46"/>
					<path class="st47" d="M597.63,446.62l2.81,0.66c0,0,1.08,3.67,1.49,6.23c0.41,2.56,0.32,5.11,0.32,5.11l-32.51,0.02
						c0,0,0.85-2.82,8.61-7.36c3.06-1.79,4.61-3.84,4.61-3.84L597.63,446.62z"/>
					<path class="st12" d="M600.97,434.92l-0.53,12.36c0,0-1.36,1.65-6.88,1.65c-5.52,0-10.59-1.49-10.59-1.49l-1.09-16.67"/>
				</g>
				<g>
					
						<rect x="616.05" y="458.63" transform="matrix(-1 7.690649e-04 -7.690649e-04 -1 1264.95 918.2335)" class="st51" width="32.51" height="1.46"/>
					<path class="st47" d="M643.93,446.62l2.81,0.66c0,0,1.08,3.67,1.49,6.23c0.41,2.56,0.32,5.11,0.32,5.11l-32.51,0.02
						c0,0,0.85-2.82,8.61-7.36c3.06-1.79,4.61-3.84,4.61-3.84L643.93,446.62z"/>
					<path class="st12" d="M645.64,434.42l1.1,12.86c0,0-1.36,1.65-6.88,1.65c-5.52,0-10.59-1.49-10.59-1.49l-2.5-16.67"/>
				</g>
				<path class="st45" d="M639.41,305.54c0,0,5.07,10.56,1,30.76c2.07,45.1,7.47,105.74,7.47,105.74l-30.97-0.11
					c0,0-6.31-65.18-10.07-97.66c-4.18-36.18-6.8-80.49-6.8-80.49"/>
				<path class="st52" d="M622.89,442.92c0,0-6.31-65.18-10.07-97.66"/>
				<path class="st45" d="M580.27,307.56c0,0-3.29,47.55-3.29,70.37c0,22.82-1.47,64.11-1.47,64.11h31.3l11.65-107.93
					c9.54-11.43,8.84-36.22,6.54-45.87l-31.04-8.48L580.27,307.56z"/>
				<path class="st52" d="M613.06,394.36l6.4-59.27c8-8.92,8-20.18,8-20.18"/>
				<line class="st52" x1="587.79" y1="303.77" x2="580.39" y2="443.03"/>
				<line class="st52" x1="608.35" y1="316.32" x2="623.56" y2="316.62"/>
				<line class="st52" x1="634.4" y1="315.84" x2="640.18" y2="315.72"/>
			</g>
			<g>
				<g>
					<path class="st12" d="M554.87,236.11c-4.24-4.8-15.63-23.06-16.91-22.77c-1.28,0.29,2.17,5.94,1.07,5.98
						c-1.09,0.04-6.99-8.29-8.19-7.67c-1.63,0.85,4.86,9.07,4.86,9.07s-2.54-3.49-3.74-2.34c-0.85,0.81-0.4,2.52,1.36,5.41
						c-1.18-1.48-2.3-1.74-3.16-0.87c-0.86,0.86-0.01,2.43,1.05,4.02c-0.83-1.04-2.05-1.57-2.36-0.48
						c-0.41,1.42,3.04,8.79,11.19,20.81"/>
				</g>
				<path class="st53" d="M616.28,216.93c0,0,17.94,0.75,23.32,21.17c2.43,9.2,3.99,72.32,3.99,72.32l-65.54-0.44
					c0,0,0.87-57.06,2.34-69.42c2.68-22.58,20.46-23.99,20.46-23.99s0.81,2,7.76,2S616.28,216.93,616.28,216.93z"/>
				<path class="st53" d="M616.28,216.93c21.29,0,34.4,29.24,34.4,29.24l-13.39,6.72"/>
				<path class="st12" d="M588.15,258.42c0,0-11.36,16.35-20.53,17.24c-12.33,1.19-34.26-39.85-34.26-39.85l13.84-9.35l18.95,23.83
					l6.46-9.66"/>
				<path class="st53" d="M600.83,216.58c-18.33,1.01-31.75,28.31-31.75,28.31l21.46,15.41l12.18-15.89"/>
				<line class="st54" x1="589.79" y1="259.76" x2="600.18" y2="246.25"/>
				<path class="st54" d="M641.4,250.84c-1.19-8.59-4.11-15.92-4.11-15.92"/>
			</g>
			<path class="st12" d="M599.91,197.99c0,0-2.95,1.42-2.8,1.96c0.15,0.54,1.03,1.85,1.03,1.85"/>
			<line class="st52" x1="576.5" y1="436.24" x2="608.35" y2="436.24"/>
			<line class="st52" x1="617.24" y1="436.51" x2="648.22" y2="436.51"/>
		</g>
	</g>
</g>
</svg>
